<svg width="214" height="218" viewBox="0 0 214 218" fill="none" xmlns="http://www.w3.org/2000/svg">
<g filter="url(#filter0_f_42_72)">
<path d="M118.894 88.8685L89.0844 108.562C87.603 109.54 88.2982 111.841 90.075 111.841H96.764C98.1045 111.841 98.9679 113.25 98.3635 114.441L91.9154 127.078C91.0793 128.717 92.9696 130.393 94.5055 129.379L124.315 109.685C125.797 108.707 125.101 106.406 123.325 106.406H116.636C115.295 106.406 114.432 104.997 115.036 103.806L121.484 91.1694C122.32 89.5298 120.43 87.8539 118.894 88.8685Z" fill="url(#paint0_linear_42_72)"/>
</g>
<path d="M118.894 88.8685L89.0844 108.562C87.603 109.54 88.2982 111.841 90.075 111.841H96.764C98.1045 111.841 98.9679 113.25 98.3635 114.441L91.9154 127.078C91.0793 128.717 92.9696 130.393 94.5055 129.379L124.315 109.685C125.797 108.707 125.101 106.406 123.325 106.406H116.636C115.295 106.406 114.432 104.997 115.036 103.806L121.484 91.1694C122.32 89.5298 120.43 87.8539 118.894 88.8685Z" fill="url(#paint1_linear_42_72)"/>
<g filter="url(#filter1_b_42_72)">
<path d="M130.773 79.8222H129.728C128.479 68.1165 118.546 59 106.473 59C96.1665 59 87.4275 65.645 84.307 74.8656C75.7814 75.2911 69 82.3118 69 90.9122C69 98.7658 74.655 105.298 82.1223 106.701C83.0171 106.886 83.9436 106.982 84.8975 106.982H130.773C138.299 106.982 144.4 100.902 144.4 93.4018C144.4 85.9013 138.299 79.8222 130.773 79.8222Z" fill="url(#paint2_linear_42_72)"/>
<path d="M128.734 79.9283L128.829 80.8222H129.728H130.773C137.75 80.8222 143.4 86.4569 143.4 93.4018C143.4 100.347 137.75 105.982 130.773 105.982H84.8975C84.0104 105.982 83.1519 105.893 82.3253 105.722L82.3162 105.72L82.3069 105.718C75.3007 104.401 70 98.2729 70 90.9122C70 82.8507 76.3575 76.2636 84.3569 75.8643L85.0362 75.8304L85.2542 75.1861C88.2411 66.3603 96.6072 60 106.473 60C118.031 60 127.539 68.7279 128.734 79.9283Z" stroke="url(#paint3_linear_42_72)" stroke-width="2"/>
</g>
<defs>
<filter id="filter0_f_42_72" x="0.27832" y="0.559998" width="212.843" height="217.127" filterUnits="userSpaceOnUse" color-interpolation-filters="sRGB">
<feFlood flood-opacity="0" result="BackgroundImageFix"/>
<feBlend mode="normal" in="SourceGraphic" in2="BackgroundImageFix" result="shape"/>
<feGaussianBlur stdDeviation="44" result="effect1_foregroundBlur_42_72"/>
</filter>
<filter id="filter1_b_42_72" x="51" y="41" width="111.399" height="83.9815" filterUnits="userSpaceOnUse" color-interpolation-filters="sRGB">
<feFlood flood-opacity="0" result="BackgroundImageFix"/>
<feGaussianBlur in="BackgroundImageFix" stdDeviation="9"/>
<feComposite in2="SourceAlpha" operator="in" result="effect1_backgroundBlur_42_72"/>
<feBlend mode="normal" in="SourceGraphic" in2="effect1_backgroundBlur_42_72" result="shape"/>
</filter>
<linearGradient id="paint0_linear_42_72" x1="95.9233" y1="128.695" x2="119.638" y2="85.3471" gradientUnits="userSpaceOnUse">
<stop stop-color="#FFDC4A"/>
<stop offset="1" stop-color="#F37322"/>
</linearGradient>
<linearGradient id="paint1_linear_42_72" x1="95.9233" y1="128.695" x2="119.638" y2="85.3471" gradientUnits="userSpaceOnUse">
<stop stop-color="#FFDC4A"/>
<stop offset="1" stop-color="#F37322"/>
</linearGradient>
<linearGradient id="paint2_linear_42_72" x1="73.2567" y1="104.273" x2="111.815" y2="43.6818" gradientUnits="userSpaceOnUse">
<stop stop-color="white" stop-opacity="0.2"/>
<stop offset="1" stop-color="white" stop-opacity="0.49"/>
</linearGradient>
<linearGradient id="paint3_linear_42_72" x1="74.3224" y1="62.7737" x2="109.655" y2="122.141" gradientUnits="userSpaceOnUse">
<stop stop-color="white"/>
<stop offset="1" stop-color="white" stop-opacity="0"/>
</linearGradient>
</defs>
</svg>
