<svg width="209" height="233" viewBox="0 0 209 233" fill="none" xmlns="http://www.w3.org/2000/svg">
<g filter="url(#filter0_f_42_65)">
<path d="M103.209 88H84.6655C80.507 88 77.1387 91.3493 77.1387 95.4843V136.637C77.1387 140.772 80.507 144.121 84.6655 144.121H112.881C117.039 144.121 120.408 140.772 120.408 136.637V105.101C120.408 103.117 119.613 101.213 118.204 99.8079L108.533 90.191C107.12 88.7857 105.205 88 103.209 88Z" fill="url(#paint0_linear_42_65)"/>
</g>
<path d="M101.496 88H82.9516C78.7931 88 75.4248 91.3493 75.4248 95.4843V136.637C75.4248 140.772 78.7931 144.121 82.9516 144.121H111.167C115.326 144.121 118.694 140.772 118.694 136.637V105.101C118.694 103.117 117.899 101.213 116.49 99.8079L106.819 90.191C105.406 88.7857 103.491 88 101.496 88Z" fill="url(#paint1_linear_42_65)"/>
<g filter="url(#filter1_b_42_65)">
<path d="M100.914 120.112V116.503C100.914 114.012 98.8822 111.991 96.3793 111.991H70.5342C68.0313 111.991 66 114.012 66 116.503V148.546C66 151.782 68.6344 154.403 71.8854 154.403H122.234C125.485 154.403 128.119 151.782 128.119 148.546V125.969C128.119 122.734 125.485 120.112 122.234 120.112H100.914Z" fill="url(#paint2_linear_42_65)"/>
<path d="M99.9136 120.112V121.112H100.914H122.234C124.937 121.112 127.119 123.291 127.119 125.969V148.547C127.119 151.225 124.937 153.403 122.234 153.403H71.8854C69.182 153.403 67 151.225 67 148.547V116.503C67 114.569 68.579 112.991 70.5342 112.991H96.3793C98.3346 112.991 99.9136 114.569 99.9136 116.503V120.112Z" stroke="url(#paint3_linear_42_65)" stroke-width="2"/>
</g>
<defs>
<filter id="filter0_f_42_65" x="-10.8613" y="0" width="219.269" height="232.121" filterUnits="userSpaceOnUse" color-interpolation-filters="sRGB">
<feFlood flood-opacity="0" result="BackgroundImageFix"/>
<feBlend mode="normal" in="SourceGraphic" in2="BackgroundImageFix" result="shape"/>
<feGaussianBlur stdDeviation="44" result="effect1_foregroundBlur_42_65"/>
</filter>
<filter id="filter1_b_42_65" x="48" y="93.9908" width="98.1189" height="78.4122" filterUnits="userSpaceOnUse" color-interpolation-filters="sRGB">
<feFlood flood-opacity="0" result="BackgroundImageFix"/>
<feGaussianBlur in="BackgroundImageFix" stdDeviation="9"/>
<feComposite in2="SourceAlpha" operator="in" result="effect1_backgroundBlur_42_65"/>
<feBlend mode="normal" in="SourceGraphic" in2="effect1_backgroundBlur_42_65" result="shape"/>
</filter>
<linearGradient id="paint0_linear_42_65" x1="78.588" y1="92.153" x2="114.037" y2="143.156" gradientUnits="userSpaceOnUse">
<stop stop-color="#FFDC7C"/>
<stop offset="1" stop-color="#F78D1E"/>
</linearGradient>
<linearGradient id="paint1_linear_42_65" x1="76.8742" y1="92.153" x2="112.323" y2="143.156" gradientUnits="userSpaceOnUse">
<stop stop-color="#FFDC7C"/>
<stop offset="1" stop-color="#F78D1E"/>
</linearGradient>
<linearGradient id="paint2_linear_42_65" x1="69.507" y1="152.009" x2="104.548" y2="100.686" gradientUnits="userSpaceOnUse">
<stop stop-color="white" stop-opacity="0.2"/>
<stop offset="1" stop-color="white" stop-opacity="0.49"/>
</linearGradient>
<linearGradient id="paint3_linear_42_65" x1="70.3849" y1="115.326" x2="102.619" y2="165.807" gradientUnits="userSpaceOnUse">
<stop stop-color="white"/>
<stop offset="1" stop-color="white" stop-opacity="0"/>
</linearGradient>
</defs>
</svg>
