<svg width="109" height="109" viewBox="0 0 109 109" fill="none" xmlns="http://www.w3.org/2000/svg">
<rect x="69.3779" y="19.1667" width="24.4546" height="28.5304" rx="7.70812" transform="rotate(42.7275 69.3779 19.1667)" fill="url(#paint0_linear_42_54)"/>
<g filter="url(#filter0_b_42_54)">
<mask id="path-2-inside-1_42_54" fill="white">
<path d="M58.3163 31.1428C59.8436 29.4893 62.4222 29.3869 64.0757 30.9143L76.0518 41.9761C77.7053 43.5034 77.8077 46.082 76.2803 47.7356L52.9232 73.0231C51.9207 74.1084 50.6422 74.9008 49.2242 75.3157L42.2679 77.351L31.4895 67.3955L32.9668 60.2993C33.268 58.853 33.9567 57.5156 34.9591 56.4303L58.3163 31.1428Z"/>
</mask>
<path d="M58.3163 31.1428C59.8436 29.4893 62.4222 29.3869 64.0757 30.9143L76.0518 41.9761C77.7053 43.5034 77.8077 46.082 76.2803 47.7356L52.9232 73.0231C51.9207 74.1084 50.6422 74.9008 49.2242 75.3157L42.2679 77.351L31.4895 67.3955L32.9668 60.2993C33.268 58.853 33.9567 57.5156 34.9591 56.4303L58.3163 31.1428Z" fill="#BFB5FF" fill-opacity="0.6"/>
<path d="M64.0757 30.9143L63.8307 31.1795L63.8307 31.1795L64.0757 30.9143ZM58.3163 31.1428L58.051 30.8978L58.051 30.8978L58.3163 31.1428ZM76.0518 41.9761L75.8068 42.2413L75.8068 42.2413L76.0518 41.9761ZM76.2803 47.7356L76.5456 47.9806L76.5456 47.9806L76.2803 47.7356ZM52.9232 73.0231L52.658 72.7781L52.658 72.7781L52.9232 73.0231ZM49.2242 75.3157L49.3256 75.6622L49.3256 75.6622L49.2242 75.3157ZM42.2679 77.351L42.0229 77.6163L42.173 77.755L42.3692 77.6976L42.2679 77.351ZM31.4895 67.3955L31.136 67.3219L31.0943 67.522L31.2445 67.6607L31.4895 67.3955ZM32.9668 60.2993L32.6133 60.2257L32.6133 60.2258L32.9668 60.2993ZM34.9591 56.4303L34.6939 56.1853L34.6939 56.1853L34.9591 56.4303ZM64.3207 30.649C62.5207 28.9864 59.7136 29.0978 58.051 30.8978L58.5815 31.3878C59.9735 29.8808 62.3237 29.7875 63.8307 31.1795L64.3207 30.649ZM76.2968 41.7109L64.3207 30.649L63.8307 31.1795L75.8068 42.2413L76.2968 41.7109ZM76.5456 47.9806C78.2082 46.1805 78.0968 43.3735 76.2968 41.7109L75.8068 42.2413C77.3138 43.6333 77.4071 45.9835 76.0151 47.4906L76.5456 47.9806ZM53.1884 73.2681L76.5456 47.9806L76.0151 47.4906L52.658 72.7781L53.1884 73.2681ZM49.3256 75.6622C50.8064 75.229 52.1416 74.4014 53.1884 73.2681L52.658 72.7781C51.6999 73.8153 50.478 74.5727 49.1228 74.9692L49.3256 75.6622ZM42.3692 77.6976L49.3256 75.6622L49.1228 74.9692L42.1665 77.0045L42.3692 77.6976ZM42.5128 77.0858L31.7345 67.1302L31.2445 67.6607L42.0229 77.6163L42.5128 77.0858ZM34.6939 56.1853C33.647 57.3187 32.9279 58.7153 32.6133 60.2257L33.3203 60.373C33.6082 58.9906 34.2663 57.7125 35.2244 56.6753L34.6939 56.1853ZM58.051 30.8978L34.6939 56.1853L35.2244 56.6753L58.5815 31.3878L58.051 30.8978ZM31.843 67.4691L33.3203 60.3729L32.6133 60.2258L31.136 67.3219L31.843 67.4691Z" fill="url(#paint1_linear_42_54)" mask="url(#path-2-inside-1_42_54)"/>
</g>
<g filter="url(#filter1_b_42_54)">
<rect width="16.3031" height="4.07577" rx="2.03788" transform="matrix(-0.734589 -0.678512 -0.678513 0.734589 73.2861 44.97)" fill="url(#paint2_linear_42_54)" fill-opacity="0.9"/>
<rect x="-0.204094" y="0.0080991" width="16.0142" height="3.78691" rx="1.89345" transform="matrix(-0.734589 -0.678512 -0.678513 0.734589 72.9376 44.8337)" stroke="url(#paint3_linear_42_54)" stroke-width="0.288859"/>
</g>
<path d="M42.2679 77.351L31.4895 67.3954L29.2748 78.0301C28.9612 79.5362 30.3656 80.8335 31.8422 80.4015L42.2679 77.351Z" fill="url(#paint4_linear_42_54)"/>
<defs>
<filter id="filter0_b_42_54" x="23.7814" y="22.1244" width="61.2888" height="62.9348" filterUnits="userSpaceOnUse" color-interpolation-filters="sRGB">
<feFlood flood-opacity="0" result="BackgroundImageFix"/>
<feGaussianBlur in="BackgroundImageFix" stdDeviation="3.85406"/>
<feComposite in2="SourceAlpha" operator="in" result="effect1_backgroundBlur_42_54"/>
<feBlend mode="normal" in="SourceGraphic" in2="effect1_backgroundBlur_42_54" result="shape"/>
</filter>
<filter id="filter1_b_42_54" x="43.9702" y="19.3338" width="43.8903" height="43.2046" filterUnits="userSpaceOnUse" color-interpolation-filters="sRGB">
<feFlood flood-opacity="0" result="BackgroundImageFix"/>
<feGaussianBlur in="BackgroundImageFix" stdDeviation="7.70812"/>
<feComposite in2="SourceAlpha" operator="in" result="effect1_backgroundBlur_42_54"/>
<feBlend mode="normal" in="SourceGraphic" in2="effect1_backgroundBlur_42_54" result="shape"/>
</filter>
<linearGradient id="paint0_linear_42_54" x1="76.4321" y1="25.4078" x2="95.7376" y2="31.0983" gradientUnits="userSpaceOnUse">
<stop stop-color="#917FFB"/>
<stop offset="1" stop-color="#3F2DAF"/>
</linearGradient>
<linearGradient id="paint1_linear_42_54" x1="27.1655" y1="30.6574" x2="60.3292" y2="75.3619" gradientUnits="userSpaceOnUse">
<stop stop-color="white"/>
<stop offset="0.765625" stop-color="white" stop-opacity="0"/>
</linearGradient>
<linearGradient id="paint2_linear_42_54" x1="16.6144" y1="2.27262" x2="-6.91715" y2="1.67331" gradientUnits="userSpaceOnUse">
<stop stop-color="#FCFDFE"/>
<stop offset="1" stop-color="#FCFDFE" stop-opacity="0"/>
</linearGradient>
<linearGradient id="paint3_linear_42_54" x1="16.1244" y1="2.8031" x2="8.15153" y2="4.07577" gradientUnits="userSpaceOnUse">
<stop stop-color="white"/>
<stop offset="1" stop-color="white" stop-opacity="0"/>
</linearGradient>
<linearGradient id="paint4_linear_42_54" x1="33.0693" y1="71.923" x2="37.1548" y2="82.4659" gradientUnits="userSpaceOnUse">
<stop stop-color="#917FFB"/>
<stop offset="1" stop-color="#3F2DAF"/>
</linearGradient>
</defs>
</svg>
