<svg width="109" height="109" viewBox="0 0 109 109" fill="none" xmlns="http://www.w3.org/2000/svg">
<path fill-rule="evenodd" clip-rule="evenodd" d="M54.389 28.97C48.3724 28.97 43.4951 33.8474 43.4951 39.864V61.6519C43.4951 63.6574 41.8693 65.2832 39.8637 65.2832C37.8582 65.2832 36.2324 63.6574 36.2324 61.6519V39.864C36.2324 29.8364 44.3614 21.7074 54.389 21.7074C64.4166 21.7074 72.5456 29.8364 72.5456 39.864V61.6519C72.5456 63.6574 70.9198 65.2832 68.9143 65.2832C66.9087 65.2832 65.2829 63.6574 65.2829 61.6519V39.864C65.2829 33.8474 60.4056 28.97 54.389 28.97Z" fill="url(#paint0_linear_42_53)"/>
<g filter="url(#filter0_b_42_53)">
<rect x="28.97" y="43.4952" width="50.8384" height="39.9445" rx="10.8939" fill="#FFB7B5" fill-opacity="0.6"/>
<rect x="29.1515" y="43.6768" width="50.4753" height="39.5813" rx="10.7124" stroke="url(#paint1_linear_42_53)" stroke-width="0.363132"/>
</g>
<g filter="url(#filter1_b_42_53)">
<rect x="61.6519" y="54.3892" width="21.7879" height="14.5253" rx="7.26263" transform="rotate(90 61.6519 54.3892)" fill="url(#paint2_linear_42_53)"/>
<rect x="61.5074" y="54.5337" width="21.499" height="14.2364" rx="7.1182" transform="rotate(90 61.5074 54.5337)" stroke="url(#paint3_linear_42_53)" stroke-width="0.288859"/>
</g>
<defs>
<filter id="filter0_b_42_53" x="21.7073" y="36.2326" width="65.3636" height="54.4697" filterUnits="userSpaceOnUse" color-interpolation-filters="sRGB">
<feFlood flood-opacity="0" result="BackgroundImageFix"/>
<feGaussianBlur in="BackgroundImageFix" stdDeviation="3.63131"/>
<feComposite in2="SourceAlpha" operator="in" result="effect1_backgroundBlur_42_53"/>
<feBlend mode="normal" in="SourceGraphic" in2="effect1_backgroundBlur_42_53" result="shape"/>
</filter>
<filter id="filter1_b_42_53" x="32.6014" y="39.864" width="43.5757" height="50.8384" filterUnits="userSpaceOnUse" color-interpolation-filters="sRGB">
<feFlood flood-opacity="0" result="BackgroundImageFix"/>
<feGaussianBlur in="BackgroundImageFix" stdDeviation="7.26263"/>
<feComposite in2="SourceAlpha" operator="in" result="effect1_backgroundBlur_42_53"/>
<feBlend mode="normal" in="SourceGraphic" in2="effect1_backgroundBlur_42_53" result="shape"/>
</filter>
<linearGradient id="paint0_linear_42_53" x1="44.8885" y1="28.3358" x2="91.0506" y2="37.7806" gradientUnits="userSpaceOnUse">
<stop stop-color="#FF6161"/>
<stop offset="1" stop-color="#F52828"/>
</linearGradient>
<linearGradient id="paint1_linear_42_53" x1="26.428" y1="46.3484" x2="52.0591" y2="96.17" gradientUnits="userSpaceOnUse">
<stop stop-color="white"/>
<stop offset="0.765625" stop-color="white" stop-opacity="0"/>
</linearGradient>
<linearGradient id="paint2_linear_42_53" x1="82.3473" y1="57.9268" x2="81.264" y2="71.6476" gradientUnits="userSpaceOnUse">
<stop stop-color="#F9FFFC"/>
<stop offset="1" stop-color="#F7FBFF" stop-opacity="0.28"/>
</linearGradient>
<linearGradient id="paint3_linear_42_53" x1="66.46" y1="72.3698" x2="80.1808" y2="52.5107" gradientUnits="userSpaceOnUse">
<stop stop-color="white"/>
<stop offset="1" stop-color="white" stop-opacity="0"/>
</linearGradient>
</defs>
</svg>
