<svg width="116" height="111" viewBox="0 0 116 111" fill="none" xmlns="http://www.w3.org/2000/svg">
<g filter="url(#filter0_d_119_329)">
<rect x="32.5" y="16.5" width="51" height="62" stroke="white" shape-rendering="crispEdges"/>
</g>
<g clip-path="url(#clip0_119_329)">
<path d="M83 19H34V76H83V19Z" fill="#0B031E"/>
<path d="M64.2369 23.8719C64.3008 31.6817 64.4195 62.6184 64.4834 70.3108M65.0722 23.5193C65.3507 31.4196 65.6976 63.0839 65.5469 70.8893" stroke="white" stroke-linecap="round"/>
<path d="M41.2646 25.2328C45.222 29.5038 60.9555 46.2715 64.8307 50.5244M40.58 25.0113C44.5099 29.3637 60.6086 47.0895 64.5431 51.2159" stroke="white" stroke-linecap="round"/>
<path d="M40.6066 24.8373C40.4104 31.567 39.922 59.0868 39.7029 65.7849M39.9493 25.8226C39.6664 32.3669 39.2327 58.3546 39.3058 64.9442" stroke="white" stroke-linecap="round"/>
<path d="M54.156 40.3959C51.9514 41.8376 42.389 47.6905 40.052 49.0645M53.7087 41.2998C51.463 42.615 41.8778 46.8725 39.5499 48.1651" stroke="white" stroke-linecap="round"/>
<path d="M77.5059 24.6264C72.8776 24.6445 54.0585 24.6445 49.3344 24.5812M78.4371 24.1563C73.7996 24.0388 53.9399 23.7044 49.0057 23.8174" stroke="white" stroke-linecap="round"/>
<path d="M39.7557 68.7C40.0022 68.7 40.5545 68.8672 40.7462 69.0842C40.9425 69.3011 40.8877 69.6672 40.9151 69.9881C40.9425 70.3135 41.0475 70.7745 40.9197 71.0231C40.7964 71.2672 40.445 71.4389 40.1574 71.4751C39.8699 71.5112 39.4225 71.3711 39.1989 71.24C38.9752 71.1044 38.9113 70.9101 38.8109 70.6706C38.7059 70.4265 38.5507 70.0469 38.5964 69.7847C38.6375 69.5226 38.852 69.2966 39.0756 69.0977C39.3039 68.8989 39.806 68.6458 39.9566 68.5916C40.1118 68.5418 39.9794 68.7091 39.9885 68.7769M39.7512 68.6639C40.0661 68.5961 40.4952 68.804 40.7051 68.9396C40.9197 69.0751 40.9881 69.1881 41.0292 69.4819C41.0703 69.7757 41.0612 70.3542 40.9562 70.6977C40.8558 71.0457 40.6412 71.3892 40.413 71.5519C40.1848 71.7146 39.8333 71.7417 39.5777 71.6694C39.3267 71.6016 39.0711 71.3892 38.9022 71.1406C38.7379 70.892 38.569 70.5169 38.5827 70.187C38.5964 69.857 38.779 69.3734 38.9889 69.152C39.1989 68.9305 39.7421 68.8898 39.8379 68.8627C39.9338 68.8356 39.5732 68.9576 39.5549 68.9848" fill="#0B031E"/>
<path d="M39.6735 68.6684C39.9063 68.5961 40.1711 68.7814 40.3765 68.9486C40.5819 69.1204 40.8192 69.3825 40.8968 69.6898C40.9744 69.9926 40.9379 70.4762 40.8466 70.77C40.7507 71.0683 40.5727 71.3756 40.34 71.466C40.1072 71.5519 39.7146 71.3937 39.4499 71.3033C39.1852 71.2175 38.8976 71.1316 38.7515 70.9327C38.6055 70.7293 38.5461 70.3904 38.5827 70.0876C38.6146 69.7802 38.7881 69.3192 38.9661 69.0932C39.1441 68.8718 39.5366 68.7949 39.6507 68.7452C39.7648 68.6955 39.6416 68.7588 39.6553 68.7995M39.8516 68.8853C40.1163 68.9079 40.4769 68.9848 40.696 69.1882C40.9151 69.3915 41.1342 69.7893 41.1615 70.1102C41.1889 70.4265 41.0429 70.8649 40.8557 71.109C40.6732 71.3485 40.308 71.4932 40.0478 71.5609C39.7877 71.6287 39.5549 71.683 39.2993 71.5112C39.0391 71.344 38.6055 70.8559 38.5051 70.5395C38.4001 70.2277 38.5644 69.9113 38.6876 69.6311C38.8063 69.3509 39.0391 69.0209 39.2399 68.8627C39.4362 68.7046 39.7329 68.6594 39.8789 68.6729C40.025 68.682 40.098 68.8899 40.1163 68.926" stroke="white" stroke-linecap="round"/>
</g>
<defs>
<filter id="filter0_d_119_329" x="0" y="-16" width="116" height="127" filterUnits="userSpaceOnUse" color-interpolation-filters="sRGB">
<feFlood flood-opacity="0" result="BackgroundImageFix"/>
<feColorMatrix in="SourceAlpha" type="matrix" values="0 0 0 0 0 0 0 0 0 0 0 0 0 0 0 0 0 0 127 0" result="hardAlpha"/>
<feMorphology radius="2" operator="dilate" in="SourceAlpha" result="effect1_dropShadow_119_329"/>
<feOffset/>
<feGaussianBlur stdDeviation="15"/>
<feComposite in2="hardAlpha" operator="out"/>
<feColorMatrix type="matrix" values="0 0 0 0 1 0 0 0 0 1 0 0 0 0 1 0 0 0 0.46 0"/>
<feBlend mode="normal" in2="BackgroundImageFix" result="effect1_dropShadow_119_329"/>
<feBlend mode="normal" in="SourceGraphic" in2="effect1_dropShadow_119_329" result="shape"/>
</filter>
<clipPath id="clip0_119_329">
<rect width="49" height="57" fill="white" transform="translate(34 19)"/>
</clipPath>
</defs>
</svg>
